<?xml version="1.0" encoding="utf-8"?>
<!-- Generator: Adobe Illustrator 16.0.0, SVG Export Plug-In . SVG Version: 6.00 Build 0)  -->
<!DOCTYPE svg PUBLIC "-//W3C//DTD SVG 1.1//EN" "http://www.w3.org/Graphics/SVG/1.1/DTD/svg11.dtd">
<svg version="1.1" xmlns="http://www.w3.org/2000/svg" xmlns:xlink="http://www.w3.org/1999/xlink" x="0px" y="0px"
	 width="222.667px" height="290px" viewBox="0 0 222.667 290" enable-background="new 0 0 222.667 290" xml:space="preserve">
<g id="Layer_1">
	<path fill="#4DC6E2" d="M104.89,13.75c0,0,20.5,77.479,43.5,91.5c0,0-35.833-20.667-51-34C97.39,71.25,91.89,33.917,104.89,13.75z"
		/>
	<path fill="#4DC6E2" d="M124.057,197.75c0,0-11.008,57.282,2.834,83.5c0,0-16.5-25.5-21-48
		C105.89,233.25,112.89,210.083,124.057,197.75z"/>
</g>
<g id="Layer_2">
	<path fill="#4DC6E2" d="M14.39,13.75c0,0,82,77.5,148.14,107.5c0,0-6.64,3.5-9.64,10.5c0,0,25.5-21,66-4c0,0-128,31.5-124,153.5
		c0,0-21.5-72,16.079-119.013C87.89,141.75,26.89,81.75,14.39,13.75z"/>
</g>
</svg>
