<?xml version="1.0" encoding="utf-8"?>
<!-- Generator: Adobe Illustrator 16.0.0, SVG Export Plug-In . SVG Version: 6.00 Build 0)  -->
<!DOCTYPE svg PUBLIC "-//W3C//DTD SVG 1.1//EN" "http://www.w3.org/Graphics/SVG/1.1/DTD/svg11.dtd">
<svg version="1.1" xmlns="http://www.w3.org/2000/svg" xmlns:xlink="http://www.w3.org/1999/xlink" x="0px" y="0px"
	 width="523.474px" height="272.75px" viewBox="0 0 523.474 272.75" enable-background="new 0 0 523.474 272.75"
	 xml:space="preserve">
<g id="Layer_1">
	<path fill="#00AEEF" d="M100.809,2.625c0,0,20.499,77.479,43.501,91.5c0,0-35.834-20.667-51.001-34
		C93.309,60.125,87.809,22.792,100.809,2.625z"/>
	<path fill="#00AEEF" d="M119.976,186.625c0,0-11.008,57.282,2.834,83.5c0,0-16.501-25.5-21.001-48
		C101.809,222.125,108.809,198.958,119.976,186.625z"/>
</g>
<g id="Layer_2">
	<path fill="#00AEEF" d="M10.309,2.625c0,0,82,77.5,148.14,107.5c0,0-6.639,3.5-9.639,10.5c0,0,25.5-21,66-4
		c0,0-128.001,31.5-124.001,153.5c0,0-21.5-72,16.079-119.013C83.809,130.625,22.809,70.625,10.309,2.625z"/>
	<text transform="matrix(1 0 0 1 158.5869 256.3242)" fill="#00AEEF" font-family="'Avenir-Light'" font-size="109.9086">Bootue</text>
</g>
</svg>
