<?xml version="1.0" encoding="utf-8"?>
<!-- Generator: Adobe Illustrator 16.0.0, SVG Export Plug-In . SVG Version: 6.00 Build 0)  -->
<!DOCTYPE svg PUBLIC "-//W3C//DTD SVG 1.1//EN" "http://www.w3.org/Graphics/SVG/1.1/DTD/svg11.dtd">
<svg version="1.1" xmlns="http://www.w3.org/2000/svg" xmlns:xlink="http://www.w3.org/1999/xlink" x="0px" y="0px" width="290px"
	 height="290px" viewBox="0 0 290 290" enable-background="new 0 0 290 290" xml:space="preserve">
<g id="Layer_1">
	<path fill="#4DC6E2" d="M138.89,11.25c0,0,20.499,77.479,43.501,91.5c0,0-35.834-20.667-51.001-34
		C131.39,68.75,125.89,31.417,138.89,11.25z"/>
	<path fill="#4DC6E2" d="M158.057,195.25c0,0-11.008,57.282,2.834,83.5c0,0-16.501-25.5-21.001-48
		C139.89,230.75,146.89,207.583,158.057,195.25z"/>
</g>
<g id="Layer_2">
	<path fill="#4DC6E2" d="M48.39,11.25c0,0,82,77.5,148.14,107.5c0,0-6.639,3.5-9.639,10.5c0,0,25.5-21,66-4
		c0,0-128.001,31.5-124.001,153.5c0,0-21.5-72,16.079-119.013C121.89,139.25,60.89,79.25,48.39,11.25z"/>
</g>
</svg>
